<svg xmlns="http://www.w3.org/2000/svg" version="1.1" x="0" y="0" width="668.7" height="280.2" viewBox="0 0 668.7 280.2" xml:space="preserve"><style type="text/css">
	.st0{fill:#30ABD6;}
	.st1{fill:#FFFFFF;}
</style><path class="st0" d="M35.6 137.9c0-48.5 35.4-83 83.3-83 47.9 0 83 34.5 83 83s-35.1 83.3-83 83.3C71.1 221.3 35.6 186.4 35.6 137.9zM179.6 137.9c0-38.2-25.8-63.7-60.6-63.7C84.1 74.2 58 99.7 58 137.9s26.1 63.7 60.9 63.7C153.8 201.7 179.6 176.2 179.6 137.9z"/><path d="M208.9 112.3c-6.8-0.5-9.5-4.2-10.5-7.4C193.3 22.1 110.6 2 54.3 21.7c-2.3-1.1-9.4 3-5-18.6 2-10-25.8 5.7-23.3 34C15.1 44.4 11.8 50 7.4 60.4c-27 63.4 28.7 81 28.7 81S35 120 45 99c0.1 0 19.9-0.1 29.4-10.9 9.1-10.4-13.7 2.2-21.4-2.1 11.8-15.4 31.8-27.9 65.6-27.4 55.5 0.8 70.4 28 75.6 46.3 0.1 3.4-1.2 7.7-8.1 9.6 -12.1 2.1-12.4 17.3-12.4 17.3s0.9-2.9 11-4.7c10-1.7 13.4-6 13.5-6.2 0 0 0 0 0 0 0 0 0 0 0 0l0 0c0 0 4.3 3.7 14.5 3.4 10.2-0.3 11.7 2.4 11.7 2.4S221.2 112 208.9 112.3z"/><path class="st1" d="M38.1 97.1c0 0-9.3 18.4-7.8 39.5C30.3 136.5 15.5 116.8 38.1 97.1z"/><path class="st1" d="M50.4 77.1c18.8-23.1 47.1-30.3 81.5-26C138.4 51.3 75.7 8.3 50.4 77.1z"/><path class="st1" d="M17 108.3c0 0-7.5-17.4-1.5-23.9C21.4 77.9 29.2 88.4 17 108.3z"/><circle cx="17.9" cy="98.7" r="1.6"/><path d="M28.5 164c6.8 0.5 9.5 4.2 10.5 7.4 5.1 82.8 87.8 102.8 144.1 83.2 2.3 1.1 9.4-3 5 18.6 -2 10 25.8-5.7 23.3-34 10.9-7.5 14.1-13.1 18.6-23.5 27-63.4-28.7-81-28.7-81s1.1 21.4-8.9 42.4c-0.1 0-19.9 0.1-29.4 10.9 -9.1 10.4 13.7-2.2 21.4 2.1 -11.8 15.4-31.8 27.9-65.6 27.4 -55.5-0.8-70.4-28-75.6-46.3 -0.1-3.4 1.2-7.7 8.1-9.6 12.1-2.1 12.4-17.3 12.4-17.3s-0.9 2.9-11 4.7c-10 1.7-13.4 6-13.5 6.2 0 0 0 0 0 0 0 0 0 0 0 0l0 0c0 0-4.3-3.7-14.5-3.4 -10.2 0.3-11.7-2.4-11.7-2.4S16.2 164.3 28.5 164z"/><path class="st1" d="M199.3 179.2c0 0 9.3-18.4 7.8-39.5C207 139.8 221.9 159.5 199.3 179.2z"/><path class="st1" d="M187 199.1c-18.8 23.1-47.1 30.3-81.5 26C98.9 225 161.6 268 187 199.1z"/><path class="st1" d="M220.4 168c0 0 7.5 17.4 1.5 23.9C215.9 198.3 208.1 187.9 220.4 168z"/><circle cx="219.4" cy="177.6" r="1.6"/><path d="M343.8 56.9v20.7c-1.8 0-3.6-0.3-5.1-0.3 -33 0-53.1 21-53.1 58.2v80.4h-21.3V58.1h20.4V89C294.6 68 314.7 56.9 343.8 56.9z"/><path d="M364.8 137c0-47.1 34.2-80.1 81.3-80.1 26.7 0 49.2 10.5 61.8 31.2L492 98.9c-10.8-15.9-27.6-23.4-45.9-23.4 -34.5 0-59.7 24.6-59.7 61.5 0 37.2 25.2 61.5 59.7 61.5 18.3 0 35.1-7.2 45.9-23.1l15.9 10.8c-12.6 20.4-35.1 31.2-61.8 31.2C399 217.4 364.8 184.1 364.8 137z"/><path d="M668.7 118.1v97.8h-20.4v-24.6c-9.6 16.2-28.2 26.1-54.3 26.1 -35.7 0-57.6-18.6-57.6-45.9 0-24.3 15.6-44.7 60.9-44.7h50.1v-9.6c0-27-15.3-41.7-44.7-41.7 -20.4 0-39.6 7.2-52.5 18.6l-9.6-15.9c15.9-13.5 39.3-21.3 64.2-21.3C645.6 56.9 668.7 77.3 668.7 118.1zM647.4 168.5v-25.8h-49.5c-30.6 0-40.5 12-40.5 28.2 0 18.3 14.7 29.7 39.9 29.7C621.3 200.6 639 189.2 647.4 168.5z"/><path d="M293.6 225.1v43.5h-1.2v-9.3c-2.1 5.7-7.2 9.4-13.5 9.4 -8.3 0-14.7-6.4-14.7-15.4s6.4-15.3 14.7-15.3c6.3 0 11.5 3.7 13.5 9.4v-22.4H293.6zM292.4 253.4c0-8.4-5.8-14.2-13.5-14.2s-13.5 5.8-13.5 14.2c0 8.4 5.8 14.2 13.5 14.2S292.4 261.8 292.4 253.4z"/><path d="M331.6 253.4h-27c0 8.4 6 14.2 14 14.2 4 0 7.9-1.5 10.3-4.7l0.8 0.8c-2.7 3.3-6.8 5-11.1 5 -8.7 0-15.1-6.4-15.1-15.4s6-15.3 14-15.3c8 0 14.1 6.2 14.1 15V253.4zM304.6 252.3h25.9c-0.4-7.5-5.8-13.1-13-13.1C310.3 239.2 305 244.8 304.6 252.3z"/><path d="M336.6 264.6l0.7-0.9c2.2 2.1 6.3 4 11.1 4 7.2 0 10.1-2.8 10.1-6.7 0-10.1-20.8-3.2-20.8-15 0-4 3.2-7.8 10.7-7.8 3.8 0 7.7 1.2 10 3.1l-0.7 0.9c-2.4-1.9-5.9-2.9-9.3-2.9 -6.7 0-9.5 2.9-9.5 6.7 0 10.4 20.7 3.6 20.7 15 0 4.6-3.7 7.9-11.3 7.9C343.5 268.8 338.9 267 336.6 264.6z"/><path d="M367.7 228.4c0-0.8 0.7-1.5 1.5-1.5 0.8 0 1.5 0.7 1.5 1.5 0 0.8-0.7 1.5-1.5 1.5C368.4 229.9 367.7 229.2 367.7 228.4zM368.6 238.3h1.2v30.3h-1.2V238.3z"/><path d="M409.5 238.3v27.6c0 9.8-4.6 14.2-14 14.2 -5.5 0-10.6-1.9-13.4-5l0.8-0.8c3.1 3 7.5 4.7 12.6 4.7 8.7 0 12.8-4 12.8-13v-7.6c-2.1 5.5-7.2 9.1-13.7 9.1 -8.5 0-14.9-6.2-14.9-14.8 0-8.6 6.4-14.7 14.9-14.7 6.5 0 11.7 3.6 13.7 9v-8.9H409.5zM408.3 252.8c0-8-5.8-13.6-13.7-13.6 -7.9 0-13.7 5.6-13.7 13.6 0 8 5.8 13.7 13.7 13.7C402.5 266.5 408.3 260.9 408.3 252.8z"/><path d="M449 250.7v17.9h-1.2v-17.9c0-7.5-4-11.5-10.9-11.5 -8 0-12.8 5.2-12.8 12.9v16.5H423v-30.3h1.2v8.1c1.8-5 6.3-8.3 12.7-8.3C444.3 238.1 449 242.5 449 250.7z"/><path d="M471.9 264.6l0.7-0.9c2.2 2.1 6.3 4 11.1 4 7.2 0 10.1-2.8 10.1-6.7 0-10.1-20.8-3.2-20.8-15 0-4 3.2-7.8 10.7-7.8 3.8 0 7.7 1.2 10 3.1l-0.7 0.9c-2.4-1.9-5.9-2.9-9.3-2.9 -6.7 0-9.5 2.9-9.5 6.7 0 10.4 20.7 3.6 20.7 15 0 4.6-3.7 7.9-11.3 7.9C478.8 268.8 474.2 267 471.9 264.6z"/><path d="M526 238.3l-16.1 35.2c-2.3 5-5 6.7-8.6 6.7 -2.6 0-4.9-0.9-6.6-2.7l0.9-0.9c1.6 1.8 3.3 2.5 5.7 2.5 2.9 0 5.2-1.3 7.3-5.9l2.1-4.6L497 238.3h1.3l13.2 29 13.2-29H526z"/><path d="M528 264.6l0.7-0.9c2.2 2.1 6.3 4 11.1 4 7.2 0 10.1-2.8 10.1-6.7 0-10.1-20.8-3.2-20.8-15 0-4 3.2-7.8 10.7-7.8 3.8 0 7.7 1.2 10 3.1l-0.7 0.9c-2.4-1.9-5.9-2.9-9.3-2.9 -6.7 0-9.5 2.9-9.5 6.7 0 10.4 20.7 3.6 20.7 15 0 4.6-3.7 7.9-11.3 7.9C534.9 268.8 530.3 267 528 264.6z"/><path d="M573.7 266.6c-1.4 1.5-3.8 2.2-5.9 2.2 -4.8 0-7.3-3-7.3-7.4v-21.9h-5.9v-1.1h5.9v-6.6h1.2v6.6h10.3v1.1h-10.3V261c0 4.3 2.1 6.6 6.2 6.6 1.9 0 3.8-0.6 5-1.9L573.7 266.6z"/><path d="M606.1 253.4h-27c0 8.4 6 14.2 14 14.2 4 0 7.9-1.5 10.3-4.7l0.8 0.8c-2.7 3.3-6.8 5-11.1 5 -8.7 0-15.1-6.4-15.1-15.4s6-15.3 14-15.3c8 0 14.1 6.2 14.1 15V253.4zM579.1 252.3H605c-0.4-7.5-5.8-13.1-13-13.1S579.5 244.8 579.1 252.3z"/><path d="M665.5 250.7v17.9h-1.2v-17.9c0-7.5-3.9-11.5-10.6-11.5 -7.7 0-12.4 5.2-12.4 12.9v16.5h-1.2v-17.9c0-7.5-3.9-11.5-10.6-11.5 -7.7 0-12.4 5.2-12.4 12.9v16.5H616v-30.3h1.2v8c1.8-5 6.2-8.2 12.4-8.2 6.2 0 10.3 3.1 11.5 9 1.5-5.4 6-9 12.7-9C660.9 238.1 665.5 242.5 665.5 250.7z"/></svg>